<?xml version="1.0" standalone="no"?><!DOCTYPE svg PUBLIC "-//W3C//DTD SVG 1.1//EN" "http://www.w3.org/Graphics/SVG/1.1/DTD/svg11.dtd"><svg t="1542847779180" class="icon" style="" viewBox="0 0 1638 1024" version="1.1" xmlns="http://www.w3.org/2000/svg" p-id="1975" xmlns:xlink="http://www.w3.org/1999/xlink" width="319.921875" height="200"><defs><style type="text/css"></style></defs><path d="M534.6666666666667 510.6666666666667m-451.2 0a451.2 451.2 0 1 0 902.4 0 451.2 451.2 0 1 0-902.4 0Z" fill="#8a8a8a" p-id="1976"></path><path d="M534.6666666666667 990.6666666666667C269.5722666666666 990.6666666666667 54.66666666666664 775.7610666666667 54.66666666666664 510.6666666666667S269.5722666666666 30.6666666666668 534.6666666666667 30.6666666666668s480 214.90559999999996 480 480-214.90559999999996 480-480 480z m0-28.799999999999997c249.18720000000002 0 451.2-202.0128 451.2-451.2S783.8538666666667 59.4666666666667 534.6666666666667 59.4666666666667 83.46666666666665 261.47946666666667 83.46666666666665 510.6666666666667s202.0128 451.2 451.2 451.2z" p-id="1977"></path><path d="M1110.6666666666667 990.6666666666667c-265.0944 0-480-214.90559999999996-480-480S845.5722666666667 30.6666666666668 1110.6666666666667 30.6666666666668s480 214.90559999999996 480 480-214.90559999999996 480-480 480z m0-28.799999999999997c249.18720000000002 0 451.2-202.0128 451.2-451.2S1359.8538666666664 59.4666666666667 1110.6666666666667 59.4666666666667 659.4666666666667 261.47946666666667 659.4666666666667 510.6666666666667s202.0128 451.2 451.2 451.2z" p-id="1978"></path></svg>