<?xml version="1.0" standalone="no"?><!DOCTYPE svg PUBLIC "-//W3C//DTD SVG 1.1//EN" "http://www.w3.org/Graphics/SVG/1.1/DTD/svg11.dtd"><svg t="1542889370857" class="icon" style="" viewBox="0 0 1638 1024" version="1.1" xmlns="http://www.w3.org/2000/svg" p-id="2259" xmlns:xlink="http://www.w3.org/1999/xlink" width="319.921875" height="200"><defs><style type="text/css"></style></defs><path d="M1109.3333333333333 512m-451.2 0a451.2 451.2 0 1 0 902.4 0 451.2 451.2 0 1 0-902.4 0Z" fill="#8a8a8a" p-id="2260"></path><path d="M1109.3333333333333 992C844.2389333333334 992 629.3333333333334 777.0944000000001 629.3333333333334 512S844.2389333333334 32 1109.3333333333333 32s480 214.9056 480 480-214.9056 480-480 480z m0-28.799999999999997c249.18720000000002 0 451.2-202.0128 451.2-451.2S1358.520533333333 60.80000000000001 1109.3333333333333 60.80000000000001 658.1333333333333 262.81280000000004 658.1333333333333 512s202.0128 451.2 451.2 451.2z" p-id="2261"></path><path d="M533.3333333333334 992C268.2389333333333 992 53.33333333333333 777.0944000000001 53.33333333333333 512S268.2389333333333 32 533.3333333333334 32s480 214.9056 480 480-214.9056 480-480 480z m0-28.799999999999997c249.18720000000002 0 451.2-202.0128 451.2-451.2S782.5205333333333 60.80000000000001 533.3333333333334 60.80000000000001 82.13333333333334 262.81280000000004 82.13333333333334 512s202.0128 451.2 451.2 451.2z" p-id="2262"></path></svg>